<?xml version="1.0" encoding="utf-8"?>
<!-- Uploaded to: SVG Repo, www.svgrepo.com, Generator: SVG Repo Mixer Tools -->
<svg fill="#000000" height="800px" width="800px" version="1.2" baseProfile="tiny" id="Layer_1" xmlns="http://www.w3.org/2000/svg" xmlns:xlink="http://www.w3.org/1999/xlink"
	  viewBox="-108 89.5 37.2 78.5" xml:space="preserve">
<path d="M-79.2,123.8v40.3h-9v-29.8c0-0.5-0.4-1-1-1h-0.2c-0.5,0-1,0.4-1,1v29.9h-9v-40.5H-79.2z M-80.3,94.4H-82l-7.4,8.5l-7.4-8.5
	h-1.7c-5.5,0-9.1,4.6-9.1,10.3v22.8h6.2v-21.1c0-0.6,0.5-1,1-1c0.6,0,1,0.4,1,1v14.8h20.2v-14.8c0-0.6,0.5-1,1-1c0.6,0,1,0.5,1,1
	v21.1h6.2v-22.7C-71.1,99-74.6,94.4-80.3,94.4z"/>
</svg>