<?xml version="1.0" encoding="iso-8859-1"?>
<!-- Uploaded to: SVG Repo, www.svgrepo.com, Generator: SVG Repo Mixer Tools -->
<svg fill="#000000" version="1.1" id="Layer_1" xmlns="http://www.w3.org/2000/svg" xmlns:xlink="http://www.w3.org/1999/xlink" 
	 viewBox="0 0 512 512" xml:space="preserve">
<g>
	<g>
		<path d="M409.567,0H102.433C83.592,0,68.267,15.317,68.267,34.15v281.583V332.8v93.85c0,15.858,10.917,29.104,25.6,32.931v43.885
			c0,4.717,3.817,8.533,8.533,8.533h51.2c4.717,0,8.533-3.817,8.533-8.533V460.8h187.733v42.667c0,4.717,3.817,8.533,8.533,8.533
			h51.2c4.717,0,8.533-3.817,8.533-8.533v-43.885c14.683-3.827,25.6-17.073,25.6-32.931V332.8v-17.067V34.15
			C443.733,15.317,428.408,0,409.567,0z M145.067,494.933h-34.133V460.8h34.133V494.933z M247.467,443.733H153.6h-51.167
			c-9.425,0-17.1-7.667-17.1-17.083V332.8h162.133V443.733z M247.467,315.733H85.333V34.15c0-9.417,7.675-17.083,17.1-17.083
			h145.033V315.733z M401.067,494.933h-34.133V460.8h34.133V494.933z M426.667,426.65c0,9.417-7.675,17.083-17.1,17.083H358.4
			h-93.867V332.8h162.133V426.65z M426.667,315.733H264.533V17.067h145.033c9.425,0,17.1,7.667,17.1,17.083V315.733z"/>
	</g>
</g>
<g>
	<g>
		<path d="M230.4,213.333h-25.6c-4.717,0-8.533,3.817-8.533,8.533v25.6c0,4.717,3.817,8.533,8.533,8.533
			c4.717,0,8.533-3.817,8.533-8.533V230.4H230.4c4.717,0,8.533-3.817,8.533-8.533C238.933,217.15,235.117,213.333,230.4,213.333z"/>
	</g>
</g>
<g>
	<g>
		<path d="M307.2,213.333h-25.6c-4.717,0-8.533,3.817-8.533,8.533c0,4.717,3.817,8.533,8.533,8.533h17.067v17.067
			c0,4.717,3.817,8.533,8.533,8.533c4.717,0,8.533-3.817,8.533-8.533v-25.6C315.733,217.15,311.917,213.333,307.2,213.333z"/>
	</g>
</g>
<g>
	<g>
		<rect x="136.533" y="375.467" width="68.267" height="17.067"/>
	</g>
</g>
<g>
	<g>
		<rect x="315.733" y="375.467" width="68.267" height="17.067"/>
	</g>
</g>
</svg>