<svg xmlns="http://www.w3.org/2000/svg" xmlns:xlink="http://www.w3.org/1999/xlink" width="514" zoomAndPan="magnify" viewBox="0 0 385.5 96.749999" height="129" preserveAspectRatio="xMidYMid meet" version="1.0"><defs><g/></defs><g fill="#a69080" fill-opacity="1"><g transform="translate(17.235666, 69.067024)"><g><path d="M 24.390625 -36.734375 C 29.316406 -36.734375 32.84375 -36.785156 34.96875 -36.890625 C 34.164062 -34.734375 33.488281 -32.613281 32.9375 -30.53125 C 32.34375 -28.34375 31.976562 -26.816406 31.84375 -25.953125 L 30.640625 -25.953125 C 30.773438 -27.023438 30.84375 -28.082031 30.84375 -29.125 C 30.84375 -31.519531 30.363281 -33.210938 29.40625 -34.203125 C 28.457031 -35.191406 26.890625 -35.6875 24.703125 -35.6875 L 23.5 -35.6875 C 22.351562 -35.6875 21.492188 -35.59375 20.921875 -35.40625 C 20.347656 -35.21875 19.882812 -34.828125 19.53125 -34.234375 C 19.1875 -33.640625 18.859375 -32.6875 18.546875 -31.375 L 15.21875 -18.859375 L 17.609375 -18.859375 C 19.273438 -18.859375 20.679688 -19.429688 21.828125 -20.578125 C 22.972656 -21.722656 23.945312 -23.234375 24.75 -25.109375 L 25.890625 -25.109375 C 25.367188 -23.484375 24.726562 -21.226562 23.96875 -18.34375 C 23.65625 -17.019531 23.117188 -14.445312 22.359375 -10.625 L 21.203125 -10.625 C 21.304688 -12.988281 21.070312 -14.78125 20.5 -16 C 19.925781 -17.21875 18.773438 -17.828125 17.046875 -17.828125 L 14.953125 -17.828125 L 11.671875 -5.53125 C 11.390625 -4.476562 11.25 -3.710938 11.25 -3.234375 C 11.25 -2.398438 11.570312 -1.84375 12.21875 -1.5625 C 12.863281 -1.28125 14.035156 -1.109375 15.734375 -1.046875 L 15.53125 0 C 13.40625 -0.101562 10.3125 -0.15625 6.25 -0.15625 C 2.425781 -0.15625 -0.398438 -0.101562 -2.234375 0 L -1.984375 -1.046875 C -0.734375 -1.109375 0.191406 -1.242188 0.796875 -1.453125 C 1.410156 -1.660156 1.90625 -2.0625 2.28125 -2.65625 C 2.664062 -3.25 3.035156 -4.207031 3.390625 -5.53125 L 10.265625 -31.375 C 10.546875 -32.550781 10.6875 -33.382812 10.6875 -33.875 C 10.6875 -34.632812 10.429688 -35.132812 9.921875 -35.375 C 9.421875 -35.625 8.507812 -35.78125 7.1875 -35.84375 L 7.453125 -36.890625 C 11.234375 -36.785156 16.878906 -36.734375 24.390625 -36.734375 Z M 24.390625 -36.734375 "/></g></g></g><g fill="#a69080" fill-opacity="1"><g transform="translate(47.87485, 69.067024)"><g><path d="M 25.796875 -8.4375 L 26.78125 -8.4375 L 25.484375 -4.640625 C 24.785156 -2.691406 23.816406 -1.304688 22.578125 -0.484375 C 21.347656 0.328125 20.023438 0.734375 18.609375 0.734375 C 16.796875 0.734375 15.507812 0.191406 14.75 -0.890625 C 14.257812 -1.515625 14.015625 -2.378906 14.015625 -3.484375 C 14.015625 -4.390625 14.171875 -5.414062 14.484375 -6.5625 C 13.304688 -3.988281 11.992188 -2.128906 10.546875 -0.984375 C 9.109375 0.160156 7.519531 0.734375 5.78125 0.734375 C 3.875 0.734375 2.425781 0.171875 1.4375 -0.953125 C 0.445312 -2.085938 -0.046875 -3.664062 -0.046875 -5.6875 C -0.046875 -8.769531 0.773438 -12.039062 2.421875 -15.5 C 4.066406 -18.957031 6.15625 -21.847656 8.6875 -24.171875 C 11.226562 -26.503906 13.71875 -27.671875 16.15625 -27.671875 C 17.09375 -27.671875 17.847656 -27.390625 18.421875 -26.828125 C 18.992188 -26.273438 19.332031 -25.441406 19.4375 -24.328125 L 20.171875 -26.890625 C 22.941406 -26.921875 25.457031 -27.179688 27.71875 -27.671875 L 20.890625 -4.421875 C 20.722656 -3.835938 20.640625 -3.351562 20.640625 -2.96875 C 20.640625 -2.207031 20.96875 -1.828125 21.625 -1.828125 C 22.84375 -1.828125 23.921875 -3.195312 24.859375 -5.9375 Z M 18.859375 -22.296875 C 18.898438 -22.472656 18.921875 -22.734375 18.921875 -23.078125 C 18.921875 -23.953125 18.769531 -24.613281 18.46875 -25.0625 C 18.175781 -25.507812 17.734375 -25.734375 17.140625 -25.734375 C 15.960938 -25.734375 14.617188 -24.675781 13.109375 -22.5625 C 11.597656 -20.445312 10.3125 -17.789062 9.25 -14.59375 C 8.1875 -11.394531 7.65625 -8.300781 7.65625 -5.3125 C 7.65625 -4.164062 7.769531 -3.335938 8 -2.828125 C 8.226562 -2.328125 8.601562 -2.078125 9.125 -2.078125 C 9.882812 -2.078125 10.722656 -2.609375 11.640625 -3.671875 C 12.566406 -4.734375 13.488281 -6.257812 14.40625 -8.25 C 15.332031 -10.25 16.140625 -12.625 16.828125 -15.375 L 16.578125 -14.125 Z M 18.859375 -22.296875 "/></g></g></g><g fill="#a69080" fill-opacity="1"><g transform="translate(76.950805, 69.067024)"><g><path d="M 3.859375 -0.734375 C 4.378906 -0.484375 5.054688 -0.359375 5.890625 -0.359375 C 7.210938 -0.359375 8.269531 -0.757812 9.0625 -1.5625 C 9.863281 -2.363281 10.265625 -3.457031 10.265625 -4.84375 C 10.265625 -5.957031 10.019531 -7.101562 9.53125 -8.28125 C 9.050781 -9.46875 8.320312 -10.804688 7.34375 -12.296875 C 7.207031 -12.503906 6.800781 -13.128906 6.125 -14.171875 C 5.445312 -15.210938 4.941406 -16.210938 4.609375 -17.171875 C 4.273438 -18.128906 4.109375 -19.078125 4.109375 -20.015625 C 4.109375 -22.265625 4.953125 -24.101562 6.640625 -25.53125 C 8.328125 -26.957031 10.644531 -27.671875 13.59375 -27.671875 C 15.851562 -27.671875 17.738281 -27.257812 19.25 -26.4375 C 20.757812 -25.625 21.515625 -24.226562 21.515625 -22.25 C 21.515625 -21.28125 21.238281 -20.394531 20.6875 -19.59375 C 20.132812 -18.789062 19.351562 -18.390625 18.34375 -18.390625 C 17.476562 -18.390625 16.78125 -18.71875 16.25 -19.375 C 15.726562 -20.039062 15.46875 -20.878906 15.46875 -21.890625 C 15.46875 -22.753906 15.625 -23.554688 15.9375 -24.296875 C 16.257812 -25.046875 16.644531 -25.6875 17.09375 -26.21875 C 16.644531 -26.488281 16.035156 -26.625 15.265625 -26.625 C 14.015625 -26.625 13.03125 -26.234375 12.3125 -25.453125 C 11.601562 -24.671875 11.234375 -23.585938 11.203125 -22.203125 C 11.203125 -21.265625 11.382812 -20.410156 11.75 -19.640625 C 12.113281 -18.878906 12.726562 -17.804688 13.59375 -16.421875 L 14.328125 -15.3125 C 15.441406 -13.476562 16.234375 -11.96875 16.703125 -10.78125 C 17.171875 -9.601562 17.40625 -8.425781 17.40625 -7.25 C 17.40625 -5.71875 17.003906 -4.351562 16.203125 -3.15625 C 15.398438 -1.957031 14.257812 -1.007812 12.78125 -0.3125 C 11.3125 0.382812 9.585938 0.734375 7.609375 0.734375 C 5.140625 0.734375 3.085938 0.253906 1.453125 -0.703125 C -0.171875 -1.660156 -0.984375 -3.195312 -0.984375 -5.3125 C -0.984375 -6.351562 -0.722656 -7.238281 -0.203125 -7.96875 C 0.316406 -8.695312 1.023438 -9.0625 1.921875 -9.0625 C 2.828125 -9.0625 3.546875 -8.679688 4.078125 -7.921875 C 4.617188 -7.160156 4.890625 -6.1875 4.890625 -5 C 4.890625 -4.238281 4.800781 -3.550781 4.625 -2.9375 C 4.457031 -2.332031 4.203125 -1.597656 3.859375 -0.734375 Z M 3.859375 -0.734375 "/></g></g></g><g fill="#a69080" fill-opacity="1"><g transform="translate(98.83593, 69.067024)"><g><path d="M 27.359375 -8.4375 L 26.0625 -4.640625 C 24.800781 -1.054688 22.472656 0.734375 19.078125 0.734375 C 15.910156 0.734375 14.328125 -0.671875 14.328125 -3.484375 C 14.328125 -4.742188 14.585938 -6.101562 15.109375 -7.5625 L 19.75 -21.625 C 20.0625 -22.632812 20.21875 -23.398438 20.21875 -23.921875 C 20.21875 -24.679688 19.890625 -25.0625 19.234375 -25.0625 C 18.253906 -25.0625 17.09375 -24.15625 15.75 -22.34375 C 14.414062 -20.539062 13.054688 -18.109375 11.671875 -15.046875 C 10.285156 -11.992188 9.019531 -8.660156 7.875 -5.046875 L 6.625 -0.671875 C 6.582031 -0.640625 6.5625 -0.585938 6.5625 -0.515625 L 6.5625 -0.578125 L 6.40625 0 L -0.9375 0 L 9.375 -34.75 C 9.550781 -35.375 9.640625 -35.863281 9.640625 -36.21875 C 9.640625 -36.914062 9.367188 -37.421875 8.828125 -37.734375 C 8.296875 -38.046875 7.382812 -38.203125 6.09375 -38.203125 L 6.40625 -39.296875 C 8.84375 -39.328125 11.023438 -39.515625 12.953125 -39.859375 C 14.878906 -40.210938 16.742188 -40.734375 18.546875 -41.421875 L 11.46875 -17.203125 C 13.238281 -21.117188 14.984375 -23.84375 16.703125 -25.375 C 18.421875 -26.90625 20.375 -27.671875 22.5625 -27.671875 C 24.195312 -27.671875 25.394531 -27.296875 26.15625 -26.546875 C 26.925781 -25.796875 27.3125 -24.78125 27.3125 -23.5 C 27.3125 -22.382812 27.066406 -21.148438 26.578125 -19.796875 L 21.46875 -4.421875 C 21.257812 -3.796875 21.15625 -3.296875 21.15625 -2.921875 C 21.15625 -2.191406 21.503906 -1.828125 22.203125 -1.828125 C 23.347656 -1.828125 24.421875 -3.195312 25.421875 -5.9375 L 26.375 -8.4375 Z M 27.359375 -8.4375 "/></g></g></g><g fill="#a69080" fill-opacity="1"><g transform="translate(128.537177, 69.067024)"><g><path d="M 9.21875 -35.640625 C 9.257812 -37.066406 9.78125 -38.195312 10.78125 -39.03125 C 11.789062 -39.863281 13.039062 -40.28125 14.53125 -40.28125 C 15.75 -40.28125 16.695312 -39.992188 17.375 -39.421875 C 18.050781 -38.847656 18.390625 -38.054688 18.390625 -37.046875 C 18.390625 -35.660156 17.867188 -34.515625 16.828125 -33.609375 C 15.785156 -32.703125 14.5 -32.25 12.96875 -32.25 C 11.71875 -32.25 10.765625 -32.550781 10.109375 -33.15625 C 9.453125 -33.769531 9.15625 -34.597656 9.21875 -35.640625 Z M 7.25 -22.515625 C 7.488281 -23.304688 7.609375 -23.828125 7.609375 -24.078125 C 7.609375 -24.765625 7.296875 -25.109375 6.671875 -25.109375 C 6.046875 -25.109375 5.472656 -24.785156 4.953125 -24.140625 C 4.429688 -23.503906 3.890625 -22.457031 3.328125 -21 L 2.296875 -18.34375 L 1.296875 -18.34375 L 2.765625 -22.296875 C 4.046875 -25.878906 6.457031 -27.671875 10 -27.671875 C 11.601562 -27.671875 12.769531 -27.28125 13.5 -26.5 C 14.226562 -25.71875 14.59375 -24.703125 14.59375 -23.453125 C 14.59375 -22.441406 14.398438 -21.414062 14.015625 -20.375 L 8.546875 -4.421875 C 8.335938 -3.796875 8.234375 -3.296875 8.234375 -2.921875 C 8.234375 -2.191406 8.582031 -1.828125 9.28125 -1.828125 C 9.800781 -1.828125 10.328125 -2.117188 10.859375 -2.703125 C 11.398438 -3.296875 11.96875 -4.375 12.5625 -5.9375 L 13.5 -8.4375 L 14.484375 -8.4375 L 13.125 -4.640625 C 11.914062 -1.054688 9.570312 0.734375 6.09375 0.734375 C 2.9375 0.734375 1.359375 -0.707031 1.359375 -3.59375 C 1.359375 -4.738281 1.617188 -6.0625 2.140625 -7.5625 Z M 7.25 -22.515625 "/></g></g></g><g fill="#a69080" fill-opacity="1"><g transform="translate(145.315778, 69.067024)"><g><path d="M 0.625 -7.875 C 0.625 -10.71875 1.273438 -13.6875 2.578125 -16.78125 C 3.878906 -19.875 5.804688 -22.460938 8.359375 -24.546875 C 10.910156 -26.628906 13.960938 -27.671875 17.515625 -27.671875 C 20.222656 -27.671875 22.304688 -26.929688 23.765625 -25.453125 C 25.222656 -23.972656 25.953125 -21.847656 25.953125 -19.078125 C 25.953125 -16.222656 25.300781 -13.25 24 -10.15625 C 22.695312 -7.070312 20.765625 -4.484375 18.203125 -2.390625 C 15.648438 -0.304688 12.601562 0.734375 9.0625 0.734375 C 6.351562 0.734375 4.269531 -0.00390625 2.8125 -1.484375 C 1.351562 -2.960938 0.625 -5.09375 0.625 -7.875 Z M 17.25 -26.625 C 15.957031 -26.625 14.546875 -25.390625 13.015625 -22.921875 C 11.492188 -20.460938 10.210938 -17.441406 9.171875 -13.859375 C 8.128906 -10.285156 7.609375 -6.953125 7.609375 -3.859375 C 7.609375 -2.609375 7.742188 -1.703125 8.015625 -1.140625 C 8.296875 -0.585938 8.75 -0.3125 9.375 -0.3125 C 10.664062 -0.3125 12.066406 -1.507812 13.578125 -3.90625 C 15.085938 -6.300781 16.363281 -9.28125 17.40625 -12.84375 C 18.445312 -16.40625 18.96875 -19.785156 18.96875 -22.984375 C 18.96875 -24.335938 18.828125 -25.28125 18.546875 -25.8125 C 18.273438 -26.351562 17.84375 -26.625 17.25 -26.625 Z M 17.25 -26.625 "/></g></g></g><g fill="#a69080" fill-opacity="1"><g transform="translate(172.880624, 69.067024)"><g><path d="M 29.125 -8.4375 L 27.828125 -4.640625 C 26.578125 -1.054688 24.25 0.734375 20.84375 0.734375 C 18.894531 0.734375 17.503906 0.160156 16.671875 -0.984375 C 16.222656 -1.648438 16 -2.46875 16 -3.4375 C 16 -4.550781 16.273438 -5.925781 16.828125 -7.5625 L 21.515625 -21.625 C 21.828125 -22.5625 21.984375 -23.304688 21.984375 -23.859375 C 21.984375 -24.660156 21.65625 -25.0625 21 -25.0625 C 19.957031 -25.0625 18.695312 -24 17.21875 -21.875 C 15.738281 -19.757812 14.253906 -16.972656 12.765625 -13.515625 C 11.273438 -10.066406 9.972656 -6.429688 8.859375 -2.609375 L 8.1875 0 L 0.828125 0 L 7.140625 -22.515625 C 7.347656 -23.140625 7.453125 -23.691406 7.453125 -24.171875 C 7.453125 -24.796875 7.15625 -25.109375 6.5625 -25.109375 C 5.90625 -25.109375 5.320312 -24.804688 4.8125 -24.203125 C 4.3125 -23.597656 3.785156 -22.53125 3.234375 -21 L 2.234375 -18.34375 L 1.25 -18.34375 L 2.65625 -22.296875 C 3.3125 -24.210938 4.195312 -25.585938 5.3125 -26.421875 C 6.425781 -27.253906 7.78125 -27.671875 9.375 -27.671875 C 12.363281 -27.671875 13.859375 -26.242188 13.859375 -23.390625 C 13.859375 -22.421875 13.71875 -21.414062 13.4375 -20.375 L 11.828125 -14.0625 C 13.253906 -17.613281 14.617188 -20.367188 15.921875 -22.328125 C 17.222656 -24.285156 18.539062 -25.664062 19.875 -26.46875 C 21.21875 -27.269531 22.703125 -27.671875 24.328125 -27.671875 C 27.460938 -27.671875 29.03125 -26.28125 29.03125 -23.5 C 29.03125 -22.457031 28.800781 -21.222656 28.34375 -19.796875 L 23.234375 -4.421875 C 23.023438 -3.796875 22.921875 -3.296875 22.921875 -2.921875 C 22.921875 -2.191406 23.253906 -1.828125 23.921875 -1.828125 C 24.472656 -1.828125 25.019531 -2.117188 25.5625 -2.703125 C 26.101562 -3.296875 26.648438 -4.375 27.203125 -5.9375 L 28.140625 -8.4375 Z M 29.125 -8.4375 "/></g></g></g><g fill="#a69080" fill-opacity="1"><g transform="translate(203.648675, 69.067024)"><g><path d="M 24.390625 -36.734375 C 29.316406 -36.734375 32.84375 -36.785156 34.96875 -36.890625 C 34.164062 -34.734375 33.488281 -32.613281 32.9375 -30.53125 C 32.34375 -28.34375 31.976562 -26.816406 31.84375 -25.953125 L 30.640625 -25.953125 C 30.773438 -27.023438 30.84375 -28.082031 30.84375 -29.125 C 30.84375 -31.519531 30.363281 -33.210938 29.40625 -34.203125 C 28.457031 -35.191406 26.890625 -35.6875 24.703125 -35.6875 L 23.5 -35.6875 C 22.351562 -35.6875 21.492188 -35.59375 20.921875 -35.40625 C 20.347656 -35.21875 19.882812 -34.828125 19.53125 -34.234375 C 19.1875 -33.640625 18.859375 -32.6875 18.546875 -31.375 L 15.21875 -18.859375 L 17.609375 -18.859375 C 19.273438 -18.859375 20.679688 -19.429688 21.828125 -20.578125 C 22.972656 -21.722656 23.945312 -23.234375 24.75 -25.109375 L 25.890625 -25.109375 C 25.367188 -23.484375 24.726562 -21.226562 23.96875 -18.34375 C 23.65625 -17.019531 23.117188 -14.445312 22.359375 -10.625 L 21.203125 -10.625 C 21.304688 -12.988281 21.070312 -14.78125 20.5 -16 C 19.925781 -17.21875 18.773438 -17.828125 17.046875 -17.828125 L 14.953125 -17.828125 L 11.671875 -5.53125 C 11.390625 -4.476562 11.25 -3.710938 11.25 -3.234375 C 11.25 -2.398438 11.570312 -1.84375 12.21875 -1.5625 C 12.863281 -1.28125 14.035156 -1.109375 15.734375 -1.046875 L 15.53125 0 C 13.40625 -0.101562 10.3125 -0.15625 6.25 -0.15625 C 2.425781 -0.15625 -0.398438 -0.101562 -2.234375 0 L -1.984375 -1.046875 C -0.734375 -1.109375 0.191406 -1.242188 0.796875 -1.453125 C 1.410156 -1.660156 1.90625 -2.0625 2.28125 -2.65625 C 2.664062 -3.25 3.035156 -4.207031 3.390625 -5.53125 L 10.265625 -31.375 C 10.546875 -32.550781 10.6875 -33.382812 10.6875 -33.875 C 10.6875 -34.632812 10.429688 -35.132812 9.921875 -35.375 C 9.421875 -35.625 8.507812 -35.78125 7.1875 -35.84375 L 7.453125 -36.890625 C 11.234375 -36.785156 16.878906 -36.734375 24.390625 -36.734375 Z M 24.390625 -36.734375 "/></g></g></g><g fill="#a69080" fill-opacity="1"><g transform="translate(234.287859, 69.067024)"><g><path d="M 27.9375 -8.59375 L 28.921875 -8.59375 L 27.515625 -4.640625 C 26.859375 -2.722656 25.910156 -1.347656 24.671875 -0.515625 C 23.441406 0.316406 22.0625 0.734375 20.53125 0.734375 C 19.59375 0.734375 18.789062 0.578125 18.125 0.265625 C 17.46875 -0.046875 16.984375 -0.484375 16.671875 -1.046875 C 16.359375 -1.671875 16.203125 -2.378906 16.203125 -3.171875 C 16.203125 -3.972656 16.378906 -5.101562 16.734375 -6.5625 L 18.140625 -11.9375 C 16.785156 -8.664062 15.476562 -6.109375 14.21875 -4.265625 C 12.96875 -2.429688 11.703125 -1.140625 10.421875 -0.390625 C 9.140625 0.359375 7.695312 0.734375 6.09375 0.734375 C 4.53125 0.734375 3.359375 0.367188 2.578125 -0.359375 C 1.796875 -1.085938 1.40625 -2.148438 1.40625 -3.546875 C 1.40625 -4.617188 1.628906 -5.816406 2.078125 -7.140625 L 7.140625 -22.515625 C 7.347656 -23.140625 7.453125 -23.640625 7.453125 -24.015625 C 7.453125 -24.742188 7.125 -25.109375 6.46875 -25.109375 C 5.90625 -25.109375 5.351562 -24.8125 4.8125 -24.21875 C 4.28125 -23.632812 3.734375 -22.5625 3.171875 -21 L 2.234375 -18.5 L 1.25 -18.5 L 2.546875 -22.296875 C 3.796875 -25.878906 6.125 -27.671875 9.53125 -27.671875 C 12.695312 -27.671875 14.28125 -26.226562 14.28125 -23.34375 C 14.28125 -22.269531 14.035156 -20.953125 13.546875 -19.390625 L 8.859375 -5.3125 C 8.546875 -4.375 8.390625 -3.628906 8.390625 -3.078125 C 8.390625 -2.273438 8.71875 -1.875 9.375 -1.875 C 10.414062 -1.875 11.648438 -2.898438 13.078125 -4.953125 C 14.503906 -7.003906 15.9375 -9.722656 17.375 -13.109375 C 18.820312 -16.492188 20.097656 -20.128906 21.203125 -24.015625 L 21.984375 -26.9375 C 25.078125 -27.007812 27.597656 -27.253906 29.546875 -27.671875 L 23.03125 -4.421875 C 22.820312 -3.691406 22.71875 -3.117188 22.71875 -2.703125 C 22.71875 -2.117188 23.015625 -1.828125 23.609375 -1.828125 C 24.265625 -1.828125 24.851562 -2.140625 25.375 -2.765625 C 25.894531 -3.390625 26.414062 -4.445312 26.9375 -5.9375 Z M 27.9375 -8.59375 "/></g></g></g><g fill="#a69080" fill-opacity="1"><g transform="translate(265.396012, 69.067024)"><g><path d="M 3.859375 -0.734375 C 4.378906 -0.484375 5.054688 -0.359375 5.890625 -0.359375 C 7.210938 -0.359375 8.269531 -0.757812 9.0625 -1.5625 C 9.863281 -2.363281 10.265625 -3.457031 10.265625 -4.84375 C 10.265625 -5.957031 10.019531 -7.101562 9.53125 -8.28125 C 9.050781 -9.46875 8.320312 -10.804688 7.34375 -12.296875 C 7.207031 -12.503906 6.800781 -13.128906 6.125 -14.171875 C 5.445312 -15.210938 4.941406 -16.210938 4.609375 -17.171875 C 4.273438 -18.128906 4.109375 -19.078125 4.109375 -20.015625 C 4.109375 -22.265625 4.953125 -24.101562 6.640625 -25.53125 C 8.328125 -26.957031 10.644531 -27.671875 13.59375 -27.671875 C 15.851562 -27.671875 17.738281 -27.257812 19.25 -26.4375 C 20.757812 -25.625 21.515625 -24.226562 21.515625 -22.25 C 21.515625 -21.28125 21.238281 -20.394531 20.6875 -19.59375 C 20.132812 -18.789062 19.351562 -18.390625 18.34375 -18.390625 C 17.476562 -18.390625 16.78125 -18.71875 16.25 -19.375 C 15.726562 -20.039062 15.46875 -20.878906 15.46875 -21.890625 C 15.46875 -22.753906 15.625 -23.554688 15.9375 -24.296875 C 16.257812 -25.046875 16.644531 -25.6875 17.09375 -26.21875 C 16.644531 -26.488281 16.035156 -26.625 15.265625 -26.625 C 14.015625 -26.625 13.03125 -26.234375 12.3125 -25.453125 C 11.601562 -24.671875 11.234375 -23.585938 11.203125 -22.203125 C 11.203125 -21.265625 11.382812 -20.410156 11.75 -19.640625 C 12.113281 -18.878906 12.726562 -17.804688 13.59375 -16.421875 L 14.328125 -15.3125 C 15.441406 -13.476562 16.234375 -11.96875 16.703125 -10.78125 C 17.171875 -9.601562 17.40625 -8.425781 17.40625 -7.25 C 17.40625 -5.71875 17.003906 -4.351562 16.203125 -3.15625 C 15.398438 -1.957031 14.257812 -1.007812 12.78125 -0.3125 C 11.3125 0.382812 9.585938 0.734375 7.609375 0.734375 C 5.140625 0.734375 3.085938 0.253906 1.453125 -0.703125 C -0.171875 -1.660156 -0.984375 -3.195312 -0.984375 -5.3125 C -0.984375 -6.351562 -0.722656 -7.238281 -0.203125 -7.96875 C 0.316406 -8.695312 1.023438 -9.0625 1.921875 -9.0625 C 2.828125 -9.0625 3.546875 -8.679688 4.078125 -7.921875 C 4.617188 -7.160156 4.890625 -6.1875 4.890625 -5 C 4.890625 -4.238281 4.800781 -3.550781 4.625 -2.9375 C 4.457031 -2.332031 4.203125 -1.597656 3.859375 -0.734375 Z M 3.859375 -0.734375 "/></g></g></g><g fill="#a69080" fill-opacity="1"><g transform="translate(287.281137, 69.067024)"><g><path d="M 9.21875 -35.640625 C 9.257812 -37.066406 9.78125 -38.195312 10.78125 -39.03125 C 11.789062 -39.863281 13.039062 -40.28125 14.53125 -40.28125 C 15.75 -40.28125 16.695312 -39.992188 17.375 -39.421875 C 18.050781 -38.847656 18.390625 -38.054688 18.390625 -37.046875 C 18.390625 -35.660156 17.867188 -34.515625 16.828125 -33.609375 C 15.785156 -32.703125 14.5 -32.25 12.96875 -32.25 C 11.71875 -32.25 10.765625 -32.550781 10.109375 -33.15625 C 9.453125 -33.769531 9.15625 -34.597656 9.21875 -35.640625 Z M 7.25 -22.515625 C 7.488281 -23.304688 7.609375 -23.828125 7.609375 -24.078125 C 7.609375 -24.765625 7.296875 -25.109375 6.671875 -25.109375 C 6.046875 -25.109375 5.472656 -24.785156 4.953125 -24.140625 C 4.429688 -23.503906 3.890625 -22.457031 3.328125 -21 L 2.296875 -18.34375 L 1.296875 -18.34375 L 2.765625 -22.296875 C 4.046875 -25.878906 6.457031 -27.671875 10 -27.671875 C 11.601562 -27.671875 12.769531 -27.28125 13.5 -26.5 C 14.226562 -25.71875 14.59375 -24.703125 14.59375 -23.453125 C 14.59375 -22.441406 14.398438 -21.414062 14.015625 -20.375 L 8.546875 -4.421875 C 8.335938 -3.796875 8.234375 -3.296875 8.234375 -2.921875 C 8.234375 -2.191406 8.582031 -1.828125 9.28125 -1.828125 C 9.800781 -1.828125 10.328125 -2.117188 10.859375 -2.703125 C 11.398438 -3.296875 11.96875 -4.375 12.5625 -5.9375 L 13.5 -8.4375 L 14.484375 -8.4375 L 13.125 -4.640625 C 11.914062 -1.054688 9.570312 0.734375 6.09375 0.734375 C 2.9375 0.734375 1.359375 -0.707031 1.359375 -3.59375 C 1.359375 -4.738281 1.617188 -6.0625 2.140625 -7.5625 Z M 7.25 -22.515625 "/></g></g></g><g fill="#a69080" fill-opacity="1"><g transform="translate(304.059738, 69.067024)"><g><path d="M 0.625 -7.875 C 0.625 -10.71875 1.273438 -13.6875 2.578125 -16.78125 C 3.878906 -19.875 5.804688 -22.460938 8.359375 -24.546875 C 10.910156 -26.628906 13.960938 -27.671875 17.515625 -27.671875 C 20.222656 -27.671875 22.304688 -26.929688 23.765625 -25.453125 C 25.222656 -23.972656 25.953125 -21.847656 25.953125 -19.078125 C 25.953125 -16.222656 25.300781 -13.25 24 -10.15625 C 22.695312 -7.070312 20.765625 -4.484375 18.203125 -2.390625 C 15.648438 -0.304688 12.601562 0.734375 9.0625 0.734375 C 6.351562 0.734375 4.269531 -0.00390625 2.8125 -1.484375 C 1.351562 -2.960938 0.625 -5.09375 0.625 -7.875 Z M 17.25 -26.625 C 15.957031 -26.625 14.546875 -25.390625 13.015625 -22.921875 C 11.492188 -20.460938 10.210938 -17.441406 9.171875 -13.859375 C 8.128906 -10.285156 7.609375 -6.953125 7.609375 -3.859375 C 7.609375 -2.609375 7.742188 -1.703125 8.015625 -1.140625 C 8.296875 -0.585938 8.75 -0.3125 9.375 -0.3125 C 10.664062 -0.3125 12.066406 -1.507812 13.578125 -3.90625 C 15.085938 -6.300781 16.363281 -9.28125 17.40625 -12.84375 C 18.445312 -16.40625 18.96875 -19.785156 18.96875 -22.984375 C 18.96875 -24.335938 18.828125 -25.28125 18.546875 -25.8125 C 18.273438 -26.351562 17.84375 -26.625 17.25 -26.625 Z M 17.25 -26.625 "/></g></g></g><g fill="#a69080" fill-opacity="1"><g transform="translate(331.624584, 69.067024)"><g><path d="M 29.125 -8.4375 L 27.828125 -4.640625 C 26.578125 -1.054688 24.25 0.734375 20.84375 0.734375 C 18.894531 0.734375 17.503906 0.160156 16.671875 -0.984375 C 16.222656 -1.648438 16 -2.46875 16 -3.4375 C 16 -4.550781 16.273438 -5.925781 16.828125 -7.5625 L 21.515625 -21.625 C 21.828125 -22.5625 21.984375 -23.304688 21.984375 -23.859375 C 21.984375 -24.660156 21.65625 -25.0625 21 -25.0625 C 19.957031 -25.0625 18.695312 -24 17.21875 -21.875 C 15.738281 -19.757812 14.253906 -16.972656 12.765625 -13.515625 C 11.273438 -10.066406 9.972656 -6.429688 8.859375 -2.609375 L 8.1875 0 L 0.828125 0 L 7.140625 -22.515625 C 7.347656 -23.140625 7.453125 -23.691406 7.453125 -24.171875 C 7.453125 -24.796875 7.15625 -25.109375 6.5625 -25.109375 C 5.90625 -25.109375 5.320312 -24.804688 4.8125 -24.203125 C 4.3125 -23.597656 3.785156 -22.53125 3.234375 -21 L 2.234375 -18.34375 L 1.25 -18.34375 L 2.65625 -22.296875 C 3.3125 -24.210938 4.195312 -25.585938 5.3125 -26.421875 C 6.425781 -27.253906 7.78125 -27.671875 9.375 -27.671875 C 12.363281 -27.671875 13.859375 -26.242188 13.859375 -23.390625 C 13.859375 -22.421875 13.71875 -21.414062 13.4375 -20.375 L 11.828125 -14.0625 C 13.253906 -17.613281 14.617188 -20.367188 15.921875 -22.328125 C 17.222656 -24.285156 18.539062 -25.664062 19.875 -26.46875 C 21.21875 -27.269531 22.703125 -27.671875 24.328125 -27.671875 C 27.460938 -27.671875 29.03125 -26.28125 29.03125 -23.5 C 29.03125 -22.457031 28.800781 -21.222656 28.34375 -19.796875 L 23.234375 -4.421875 C 23.023438 -3.796875 22.921875 -3.296875 22.921875 -2.921875 C 22.921875 -2.191406 23.253906 -1.828125 23.921875 -1.828125 C 24.472656 -1.828125 25.019531 -2.117188 25.5625 -2.703125 C 26.101562 -3.296875 26.648438 -4.375 27.203125 -5.9375 L 28.140625 -8.4375 Z M 29.125 -8.4375 "/></g></g></g></svg>